<?xml version="1.0" encoding="UTF-8" standalone="no"?>
<!-- Created with Inkscape (http://www.inkscape.org/) -->

<svg
   width="512"
   height="512"
   viewBox="0 0 512 512"
   version="1.1"
   id="svg1"
   inkscape:version="1.4.2 (ebf0e940d0, 2025-05-08)"
   sodipodi:docname="LICENSE.svg"
   xml:space="preserve"
   inkscape:export-filename="SmartXm-logo.png"
   inkscape:export-xdpi="96"
   inkscape:export-ydpi="96"
   xmlns:inkscape="http://www.inkscape.org/namespaces/inkscape"
   xmlns:sodipodi="http://sodipodi.sourceforge.net/DTD/sodipodi-0.dtd"
   xmlns="http://www.w3.org/2000/svg"
   xmlns:svg="http://www.w3.org/2000/svg"><sodipodi:namedview
     id="namedview1"
     pagecolor="#ffffff"
     bordercolor="#000000"
     borderopacity="0.25"
     inkscape:showpageshadow="2"
     inkscape:pageopacity="0.0"
     inkscape:pagecheckerboard="0"
     inkscape:deskcolor="#d1d1d1"
     inkscape:document-units="px"
     inkscape:zoom="0.56969052"
     inkscape:cx="-160.61352"
     inkscape:cy="371.2542"
     inkscape:window-width="1920"
     inkscape:window-height="1012"
     inkscape:window-x="1920"
     inkscape:window-y="0"
     inkscape:window-maximized="1"
     inkscape:current-layer="layer1" /><defs
     id="defs1"><inkscape:path-effect
       effect="perspective-envelope"
       up_left_point="78.567064,223.75173"
       up_right_point="433.43293,227.78567"
       down_left_point="78.567064,288.24829"
       down_right_point="433.43293,280.21805"
       id="path-effect4"
       is_visible="true"
       lpeversion="1"
       deform_type="perspective"
       horizontal_mirror="false"
       vertical_mirror="false"
       overflow_perspective="false" /></defs><g
     inkscape:label="Layer 1"
     inkscape:groupmode="layer"
     id="layer1"><path
       style="fill:#ef8333;fill-opacity:1;stroke:#90430c;stroke-width:8.78566;stroke-linecap:round;stroke-dasharray:none;stroke-opacity:1"
       d="m 211.47412,372.46605 -10.6025,51.08473 c 0,0 -3.85545,15.90373 53.97633,30.84361 l 108.96936,-10.12056 c -57.83178,-14.93988 -78.19545,-19.56427 -80.00063,-24.5785 -5.36612,-14.90545 5.30126,-47.22928 5.30126,-47.22928"
       id="path2"
       sodipodi:nodetypes="ccccsc" /><path
       id="rect4"
       style="fill:#01aeee;stroke-width:4;stroke-linecap:round"
       d="m 48.23597,102.26895 412.98033,40 c 6.15987,0.59663 11.17092,4.98223 11.17092,11.17092 v 187.5208 c 0,6.18869 -5.01105,10.57429 -11.17092,11.17092 l -412.98033,40 c -6.159864,0.59663 -11.170922,-4.98223 -11.170922,-11.17092 v -267.5208 c 0,-6.18869 5.011058,-11.76755 11.170922,-11.17092 z"
       sodipodi:nodetypes="sssssssss" /><path
       style="baseline-shift:baseline;display:inline;overflow:visible;opacity:1;fill:#ef8333;fill-opacity:1;stroke:#843f0b;stroke-width:3;stroke-linecap:round;stroke-dasharray:none;stroke-opacity:1;enable-background:accumulate;stop-color:#000000;stop-opacity:1"
       d="m 56.166014,93.89844 c -14.268462,-1.428025 -26.119141,11.7794 -26.119141,26.11914 v 251.96484 c 0,14.33974 11.85068,27.54716 26.119141,26.11914 l 399.669926,-40 c 14.26846,-1.42802 26.11719,-11.7794 26.11719,-26.11914 V 160.01758 c 0,-14.33975 -11.84873,-24.69112 -26.11719,-26.11914 z m 0,15 399.669926,40 c 6.25794,0.62631 11.11719,4.82994 11.11719,11.11914 v 171.96484 c 0,6.2892 -4.85925,10.49283 -11.11719,11.11914 l -399.669926,40 c -6.25794,0.62631 -11.119141,-4.82994 -11.119141,-11.11914 V 120.01758 c 0,-6.2892 4.861202,-11.74545 11.119141,-11.11914 z"
       id="rect1"
       sodipodi:nodetypes="ssssssssssssssssss" /><path
       style="font-size:89.9533px;line-height:1.2;font-family:Prototype;-inkscape-font-specification:Prototype;text-align:center;text-anchor:middle;fill:#ef8333;stroke:#90430c;stroke-width:4;stroke-linecap:round"
       d="m 111.83247,261.15948 c 1.77838,-0.0151 3.30507,0.11894 4.5813,0.40185 1.34524,0.22317 2.37056,0.65431 3.07701,1.29331 0.84704,0.81308 1.3408,1.74632 1.48182,2.80017 0.141,0.99506 0.21149,1.96151 0.21149,2.89946 0,0.64483 -0.0353,1.26083 -0.1058,1.84801 -0.0705,0.58723 -0.28207,1.20581 -0.6347,1.85591 -0.3528,0.709 -0.91756,1.50952 -1.69466,2.40191 -0.77776,0.83441 -1.69776,1.26062 -2.76044,1.27812 l -34.87987,0.57429 c -0.735982,0.0121 -1.104187,0.3178 -1.104187,0.91703 v 9.88738 c 0,0.59923 0.368205,0.89051 1.104187,0.87386 l 39.33503,-0.89011 c 1.55072,-0.0351 3.16917,-0.45226 4.85497,-1.25045 1.75279,-0.85669 3.22256,-1.70585 4.41066,-2.54788 3.90297,-2.93396 6.12584,-7.0476 6.68072,-12.34783 0.13867,-0.46704 0.20799,-0.96214 0.20799,-1.48535 v -1.83123 c 0,-1.3371 -0.10399,-2.73121 -0.312,-4.18258 -0.20807,-1.4517 -0.58964,-2.84411 -1.14494,-4.17759 -0.48616,-1.33476 -1.14636,-2.58182 -1.98097,-3.74144 -0.76574,-1.16102 -1.74122,-2.14719 -2.92712,-2.95857 -2.02654,-1.3934 -4.23283,-2.32167 -6.62014,-2.7834 -2.39348,-0.52155 -4.68716,-0.78053 -6.88026,-0.77592 l -11.97593,0.0251 c -1.65158,0.003 -3.19809,-0.0525 -4.639,-0.16813 -1.370914,-0.11591 -2.454631,-0.49969 -3.250154,-1.1516 -0.868611,-0.77123 -1.375672,-1.66224 -1.520597,-2.67263 -0.144947,-1.01053 -0.217429,-1.99142 -0.217429,-2.94255 0,-0.59445 0.03624,-1.18882 0.108716,-1.78308 0.07247,-0.59421 0.289859,-1.18791 0.652062,-1.78098 0.36206,-0.65224 0.941067,-1.33301 1.73662,-2.04206 0.867108,-0.76743 1.805571,-1.14826 2.815172,-1.143 l 30.73281,0.15992 c 0.69707,0.004 1.0454,-0.28593 1.0454,-0.86865 v -9.61503 c 0,-0.58273 -0.34833,-0.87806 -1.0454,-0.88598 l -35.284597,-0.4011 c -1.739836,-0.0198 -3.519244,0.34696 -5.338437,1.10133 -1.822713,0.75582 -3.356517,1.54586 -4.599995,2.36983 -4.254807,2.83346 -6.647352,6.86075 -7.163461,12.07443 -0.147512,0.53925 -0.221276,1.07876 -0.221276,1.61848 v 1.70911 c 0,1.37929 0.110644,2.78854 0.331894,4.22751 0.294919,1.37856 0.700284,2.75643 1.215951,4.13336 0.588992,1.31601 1.287944,2.57082 2.096613,3.7643 0.881397,1.1322 1.945325,2.11272 3.191165,2.94153 2.121475,1.35866 4.456893,2.26542 7.004651,2.72163 2.613379,0.45437 5.038767,0.67155 7.277589,0.65252 z m 32.42828,24.73385 c 0,0.57892 0.34366,0.86061 1.03061,0.84506 l 10.44648,-0.23639 c 0.67862,-0.0154 1.01774,-0.31052 1.01774,-0.88549 l 0,-31.91102 c 0,-0.68997 0.23731,-1.29462 0.71175,-1.81374 0.54191,-0.51908 1.18501,-0.77969 1.92909,-0.78206 l 9.28321,-0.0296 c 1.53798,-0.005 2.93995,0.47536 4.20651,1.43976 1.33131,0.90582 1.99622,1.92746 1.99622,3.06594 l 0,29.62914 c 0,0.56924 0.33228,0.84634 0.99646,0.83131 l 10.10121,-0.22858 c 0.65627,-0.0149 0.98423,-0.30498 0.98423,-0.87041 l 0,-29.43034 c 0,-1.4701 0.55724,-2.57506 1.67068,-3.31418 1.17743,-0.79486 2.35331,-1.19378 3.52764,-1.19752 l 6.4313,-0.0205 c 0.71173,-0.002 1.4552,0.13568 2.23033,0.41366 0.83896,0.22145 1.58046,0.58317 2.22473,1.08505 0.70817,0.50125 1.28715,1.11467 1.73721,1.84029 0.44983,0.66929 0.67466,1.45147 0.67466,2.34679 v 27.86698 c 0,0.55957 0.35319,0.83137 1.05915,0.81539 l 9.66597,-0.21873 c 0.63431,-0.0143 0.95129,-0.29947 0.95129,-0.85535 v -28.76715 c 0,-1.55648 -0.44381,-3.13898 -1.33209,-4.74871 -0.82563,-1.66715 -2.03373,-3.16833 -3.62585,-4.50416 -1.53115,-1.33823 -3.38484,-2.42777 -5.5631,-3.26843 -2.18363,-0.89871 -4.59831,-1.35164 -7.24589,-1.35713 l -6.91437,-0.0143 c -0.39114,-8.2e-4 -1.27184,0.0538 -2.64355,0.16387 -1.30835,0.0539 -2.61862,0.39053 -3.93081,1.0106 -0.72253,0.28198 -1.347,0.62091 -1.8732,1.01681 -0.46069,0.39616 -0.85575,0.76422 -1.1851,1.10413 -0.32948,0.34003 -0.6261,0.62348 -0.88985,0.85032 -0.19787,0.17017 -0.36279,0.2553 -0.49475,0.25535 -0.13198,5e-5 -0.429,-0.17003 -0.89123,-0.51036 -0.39639,-0.39726 -0.75989,-0.73792 -1.09047,-1.02192 -0.66155,-0.56831 -1.72104,-1.19431 -3.17987,-1.87852 -1.46119,-0.68531 -3.05794,-1.03018 -4.79095,-1.03378 l -20.95659,-0.0435 c -1.50333,-0.003 -2.94064,0.51399 -4.31162,1.55248 -1.30432,0.98223 -1.95718,2.19752 -1.95718,3.64483 z m 82.23897,-43.37448 0,8.45979 c 0,0.55292 0.3135,0.82822 0.94016,0.8259 l 24.36864,-0.0904 c 0.97401,-0.004 1.76457,0.37451 2.37221,1.13397 0.60722,0.75893 0.91066,1.51891 0.91066,2.28036 0,0.92461 -0.48556,1.7437 -1.45751,2.45788 -0.9122,0.66007 -2.16044,0.99645 -3.74616,1.00865 l -15.42867,0.1187 c -1.86626,0.0144 -3.45573,0.49537 -4.76689,1.44407 -1.31312,0.95012 -2.37758,2.12035 -3.19244,3.51058 -0.81564,1.3362 -1.41216,2.80935 -1.78912,4.41903 -0.37712,1.61038 -0.56574,3.08024 -0.56574,4.40905 0,0.71977 0.12575,1.76967 0.37721,3.14939 0.25137,1.37933 0.69111,2.7547 1.31892,4.12568 0.69008,1.36871 1.63021,2.56522 2.81959,3.58929 1.18778,0.9675 2.71699,1.42958 4.58585,1.38729 l 31.97886,-0.72365 c 0.59944,-0.0136 0.89901,-0.29054 0.89901,-0.83094 l 0,-26.7499 c 0,-1.72929 -0.23965,-3.4575 -0.71914,-5.18536 -0.41977,-1.72899 -1.13986,-3.29608 -2.16103,-4.70192 -0.96221,-1.40751 -2.25689,-2.54589 -3.88554,-3.41519 -1.57125,-0.92516 -3.50905,-1.39076 -5.81589,-1.39555 l -26.10282,-0.0541 c -0.62666,-0.001 -0.94016,0.27451 -0.94016,0.82744 z m 11.8655,32.47532 c -1.11426,0.019 -1.98189,-0.32351 -2.60217,-1.02804 -0.62071,-0.70504 -0.93123,-1.52549 -0.93123,-2.46099 0,-0.77041 0.27947,-1.46225 0.83816,-2.07522 0.55832,-0.66756 1.27121,-1.00694 2.13829,-1.01846 l 16.37246,-0.21756 c 0.60722,-0.008 0.91066,0.25984 0.91066,0.80373 v 4.89501 c 0,0.54388 -0.30344,0.82101 -0.91066,0.83138 z m 46.33454,-33.18399 c -1.58389,-0.003 -3.08252,0.28813 -4.49542,0.875 -1.41525,0.53419 -2.65554,1.28417 -3.72009,2.25015 -1.06589,0.9672 -1.92549,2.09674 -2.57818,3.38846 -0.59379,1.29256 -0.89084,2.63887 -0.89084,4.03825 l 0,30.67876 c 0,0.53822 0.29705,0.80061 0.89084,0.78718 l 9.91412,-0.22435 c 0.58648,-0.0133 0.87957,-0.28717 0.87957,-0.8217 l 0,-27.66194 c 0,-0.32072 0.0879,-0.66864 0.26369,-1.0437 0.17576,-0.42843 0.41003,-0.80361 0.70279,-1.12552 0.35117,-0.37546 0.73144,-0.69749 1.14078,-0.96611 0.40913,-0.26848 0.87648,-0.40365 1.40192,-0.4056 l 8.36289,-0.031 c 0.57768,-0.002 0.86637,-0.26847 0.86637,-0.79897 v -8.11671 c 0,-0.5305 -0.28869,-0.79635 -0.86637,-0.79755 z m 31.91355,10.45016 c 0,-0.52445 0.28203,-0.78772 0.84581,-0.78981 l 6.90331,-0.0256 c 0.55872,-0.002 0.83794,-0.26397 0.83794,-0.78569 v -7.98245 c 0,-0.52172 -0.27922,-0.78317 -0.83794,-0.78433 l -6.90331,-0.0143 c -0.56378,-0.001 -0.84581,-0.26398 -0.84581,-0.78842 v -9.8333 c 0,-0.52444 -0.28213,-0.78919 -0.84668,-0.79424 l -8.68577,-0.0777 c -0.57086,-0.005 -0.85644,0.25621 -0.85644,0.78394 v 9.89487 c 0,0.52772 -0.28568,0.79099 -0.85733,0.7898 l -4.55853,-0.009 c -0.57516,-0.001 -0.86289,0.26306 -0.86289,0.79277 v 8.10459 c 0,0.52971 0.28773,0.79349 0.86289,0.79136 l 4.55853,-0.0169 c 0.57165,-0.002 0.85733,0.26068 0.85733,0.78841 l 0,24.6976 c 0,1.63595 0.71376,3.04596 2.13945,4.22851 1.42326,1.18052 3.21312,1.7456 5.36719,1.69686 l 10.63137,-0.24058 c 0.55872,-0.0126 0.83794,-0.27982 0.83794,-0.80155 v -7.98244 c 0,-0.46956 -0.22336,-0.72665 -0.67028,-0.7713 l -7.07097,0.1191 c -0.56378,0.01 -0.84581,-0.24797 -0.84581,-0.77241 z m 34.14791,13.87971 c 0.0541,-0.10343 0.10826,-0.23252 0.16234,-0.38729 0.10821,-0.20678 0.2164,-0.31083 0.32458,-0.31217 0.10817,-0.001 0.18928,0.10034 0.24335,0.30503 0.10813,0.15266 0.18922,0.27997 0.24327,0.38195 l 8.30852,14.98514 c 0.26747,0.40258 0.50811,0.62694 0.72195,0.67317 0.26723,0.045 0.53436,0.0644 0.80141,0.0584 l 8.84253,-0.2001 c 0.36964,-0.008 0.65995,-0.0403 0.87102,-0.0957 0.26375,-0.0567 0.39559,-0.23713 0.39559,-0.54133 0,-0.1014 -0.10547,-0.35259 -0.31646,-0.75366 l -13.32485,-24.71482 c -0.10727,-0.15274 -0.24139,-0.35648 -0.40236,-0.61124 -0.10733,-0.25512 -0.16099,-0.43384 -0.16099,-0.53614 0,-0.10231 0.0537,-0.25606 0.16099,-0.46123 0.16097,-0.25657 0.29509,-0.46182 0.40236,-0.61577 l 13.32485,-24.86489 c 0.21099,-0.40343 0.31646,-0.65581 0.31646,-0.75722 0,-0.30423 -0.13184,-0.48318 -0.39559,-0.53687 -0.21107,-0.0531 -0.50138,-0.0818 -0.87102,-0.086 l -8.84253,-0.10052 c -0.26705,-0.003 -0.53418,0.0195 -0.80141,0.0675 -0.21384,0.0486 -0.45448,0.27567 -0.72195,0.68129 l -8.30852,15.07871 c -0.054,0.10259 -0.13511,0.25648 -0.24327,0.4617 -0.054,0.15396 -0.13515,0.23089 -0.24335,0.23077 -0.10818,-1.2e-4 -0.21637,-0.0773 -0.32458,-0.23149 -0.0541,-0.20552 -0.10819,-0.35968 -0.16234,-0.46249 l -8.4045,-15.26986 c -0.27344,-0.4161 -0.54697,-0.65156 -0.8206,-0.7063 -0.21897,-0.0542 -0.46537,-0.0828 -0.73925,-0.0859 l -9.1727,-0.10427 c -0.38789,-0.004 -0.72052,0.0178 -0.99781,0.0667 -0.2219,0.0495 -0.33287,0.23025 -0.33287,0.54235 0,0.10403 0.11097,0.36528 0.33287,0.78368 l 13.77826,25.36053 c 0.10908,0.15415 0.21815,0.35983 0.3272,0.61705 0.16354,0.20533 0.2453,0.35953 0.2453,0.46262 0,0.10309 -0.0818,0.28398 -0.2453,0.54271 -0.10905,0.25844 -0.21812,0.46536 -0.3272,0.62073 l -13.77826,25.51569 c -0.2219,0.4209 -0.33287,0.6834 -0.33287,0.78742 0,0.31208 0.11097,0.49162 0.33287,0.53862 0.27729,0.0457 0.60992,0.0642 0.99781,0.0554 l 9.1727,-0.20756 c 0.27388,-0.006 0.52028,-0.0376 0.73925,-0.0942 0.27363,-0.0579 0.54716,-0.2964 0.8206,-0.71554 z m 26.90379,14.58226 c 0,0.50514 0.26166,0.75179 0.78473,0.73996 l 7.96043,-0.18014 c 0.51753,-0.0117 0.77617,-0.26863 0.77617,-0.77076 l 0,-27.86847 c 0,-0.60256 0.18099,-1.13051 0.54286,-1.58369 0.41336,-0.45314 0.90396,-0.68053 1.47163,-0.68234 l 7.08734,-0.0226 c 1.17508,-0.004 2.24645,0.4166 3.21452,1.26026 1.01775,0.79261 1.52613,1.68629 1.52613,2.6818 l 0,25.90836 c 0,0.49776 0.25407,0.74089 0.76196,0.72939 l 7.73004,-0.17492 c 0.50259,-0.0114 0.75377,-0.26447 0.75377,-0.75931 v -25.75624 c 0,-1.28657 0.42681,-2.25332 1.27973,-2.89972 0.90208,-0.69528 1.80312,-1.04405 2.70312,-1.04692 l 4.93155,-0.0157 c 0.54603,-0.002 1.11647,0.11936 1.71126,0.36315 0.64385,0.19431 1.21296,0.5115 1.7075,0.95148 0.54363,0.4395 0.98814,0.97726 1.33369,1.61331 0.34539,0.58674 0.51803,1.27229 0.51803,2.05685 l 0,24.41956 c 0,0.49035 0.27122,0.72939 0.81337,0.71712 l 7.42846,-0.1681 c 0.48783,-0.011 0.73163,-0.26031 0.73163,-0.74783 l 0,-25.22895 c 0,-1.36505 -0.34134,-2.7531 -1.02447,-4.1651 -0.63487,-1.46215 -1.5637,-2.77866 -2.78755,-3.95001 -1.17673,-1.1732 -2.601,-2.12813 -4.27417,-2.86465 -1.6768,-0.78716 -3.53041,-1.18349 -5.5621,-1.1877 l -5.30236,-0.011 c -0.2998,-6.2e-4 -0.97477,0.0474 -2.02588,0.14404 -1.00238,0.0474 -2.00604,0.34235 -3.01099,0.88522 -0.55328,0.24685 -1.03142,0.54351 -1.43429,0.88997 -0.35268,0.34667 -0.65511,0.66872 -0.90722,0.96612 -0.2522,0.2975 -0.47924,0.54548 -0.68111,0.74393 -0.15143,0.14887 -0.27765,0.22333 -0.37865,0.22337 -0.101,4e-5 -0.3283,-0.14876 -0.68202,-0.44648 -0.30332,-0.34751 -0.58145,-0.64549 -0.83439,-0.89389 -0.50613,-0.49705 -1.31661,-1.04445 -2.43238,-1.64261 -1.11735,-0.59902 -2.3381,-0.90021 -3.66271,-0.90296 l -15.99274,-0.0332 c -1.14545,-0.002 -2.24038,0.44926 -3.28457,1.3558 -0.99324,0.85727 -1.49032,1.91773 -1.49032,3.18059 z"
       id="text4"
       aria-label="SmartXm"
       inkscape:path-effect="#path-effect4"
       inkscape:original-d="m 106.09277,261.44221 q 2.24884,0 3.868,0.44976 1.70911,0.35982 2.60864,1.3493 1.07944,1.25935 1.25935,2.87851 0.1799,1.52921 0.1799,2.96846 0,0.98948 -0.09,1.88902 -0.09,0.89953 -0.53972,1.88902 -0.44977,1.07944 -1.43925,2.42874 -0.98949,1.25934 -2.33879,1.25934 H 80.63599 q -0.899533,0 -0.899533,0.89953 v 9.89487 q 0,0.89953 0.899533,0.89953 h 32.743 q 1.97897,0 4.13785,-1.16939 2.24884,-1.25935 3.77804,-2.51869 5.03739,-4.40772 5.75701,-12.59347 0.17991,-0.71962 0.17991,-1.5292 0,-0.89954 0,-1.88902 0,-2.06893 -0.26986,-4.31776 -0.26986,-2.24883 -0.98949,-4.31776 -0.62967,-2.06892 -1.70911,-3.86799 -0.98949,-1.79907 -2.51869,-3.05841 -2.60865,-2.15888 -5.66706,-2.87851 -3.05841,-0.80958 -5.84696,-0.80958 h -10.07477 q -2.06893,0 -3.867996,-0.1799 -1.709112,-0.17991 -2.698599,-1.1694 -1.079439,-1.16939 -1.259346,-2.6986 -0.179907,-1.5292 -0.179907,-2.96846 0,-0.89953 0.08995,-1.79906 0.08995,-0.89953 0.53972,-1.79907 0.449766,-0.98948 1.439252,-2.06892 1.07944,-1.1694 2.338786,-1.1694 h 25.99651 q 0.89953,0 0.89953,-0.89953 v -9.89486 q 0,-0.89954 -0.89953,-0.89954 H 92.779686 q -2.15888,0 -4.407712,1.1694 -2.248833,1.16939 -3.778039,2.42874 -5.217291,4.31776 -5.846964,12.14369 -0.179907,0.80958 -0.179907,1.61916 0,0.80958 0,1.70911 0,2.06893 0.26986,4.22781 0.359813,2.06893 0.989486,4.13785 0.719627,1.97897 1.709113,3.77804 1.07944,1.70911 2.608646,2.96846 2.608645,2.06892 5.757011,2.78855 3.238319,0.71963 6.026871,0.71963 z m 27.79551,25.90655 q 0,0.89953 0.89953,0.89953 h 9.17524 q 0.89953,0 0.89953,-0.89953 v -33.28272 q 0,-1.07944 0.62967,-1.88902 0.71963,-0.80958 1.70912,-0.80958 h 8.2757 q 2.06893,0 3.77804,1.5292 1.79906,1.43926 1.79906,3.23832 v 31.2138 q 0,0.89953 0.89954,0.89953 h 9.17523 q 0.89954,0 0.89954,-0.89953 v -31.2138 q 0,-2.33878 1.5292,-3.50818 1.61916,-1.25934 3.23832,-1.25934 h 5.93692 q 0.98949,0 2.06893,0.44976 1.16939,0.35982 2.06892,1.1694 0.98949,0.80958 1.61916,1.97897 0.62967,1.07944 0.62967,2.51869 v 29.8645 q 0,0.89953 0.98949,0.89953 h 9.08528 q 0.89954,0 0.89954,-0.89953 v -31.03389 q 0,-2.51869 -1.25935,-5.12734 -1.16939,-2.6986 -3.41822,-4.85748 -2.15888,-2.15888 -5.2173,-3.50818 -3.05841,-1.43925 -6.74649,-1.43925 h -6.38669 q -0.53972,0 -2.42874,0.17991 -1.79906,0.0899 -3.59813,1.07944 -0.98949,0.44976 -1.70911,1.07944 -0.62967,0.62967 -1.07944,1.16939 -0.44977,0.53972 -0.80958,0.89953 -0.26986,0.26986 -0.44977,0.26986 -0.1799,0 -0.80958,-0.53972 -0.53972,-0.62967 -0.98948,-1.07944 -0.89954,-0.89953 -2.87851,-1.97897 -1.97897,-1.07944 -4.31776,-1.07944 h -18.62033 q -1.97897,0 -3.77804,1.61916 -1.70911,1.52921 -1.70911,3.77804 z m 75.111,-45.06661 v 9.17524 q 0,0.89953 0.89953,0.89953 h 23.65772 q 1.43925,0 2.33878,1.25935 0.89954,1.25935 0.89954,2.51869 0,1.52921 -1.43926,2.6986 -1.3493,1.07944 -3.68808,1.07944 h -15.0222 q -2.6986,0 -4.58762,1.52921 -1.88902,1.5292 -3.05841,3.77804 -1.1694,2.15888 -1.70912,4.76752 -0.53972,2.60865 -0.53972,4.76753 0,1.16939 0.35982,3.41822 0.35981,2.24883 1.25934,4.49767 0.98949,2.24883 2.6986,3.95794 1.70912,1.61916 4.40771,1.61916 h 31.39371 q 0.89953,0 0.89953,-0.89953 v -29.68459 q 0,-2.87851 -0.71963,-5.75701 -0.62967,-2.87851 -2.15888,-5.21729 -1.43925,-2.33879 -3.86799,-3.77804 -2.33878,-1.52921 -5.75701,-1.52921 h -25.36683 q -0.89953,0 -0.89953,0.89953 z m 11.42407,35.4416 q -1.61916,0 -2.5187,-1.16939 -0.89953,-1.16939 -0.89953,-2.6986 0,-1.25934 0.80958,-2.24883 0.80958,-1.07944 2.06893,-1.07944 h 16.01168 q 0.89954,0 0.89954,0.89953 v 5.3972 q 0,0.89953 -0.89954,0.89953 z m 46.14611,-36.34113 q -2.42874,0 -4.58762,0.98949 -2.15887,0.89953 -3.77803,2.51869 -1.61916,1.61916 -2.60865,3.77804 -0.89953,2.15888 -0.89953,4.49766 v 34.18226 q 0,0.89953 0.89953,0.89953 h 10.07477 q 0.89953,0 0.89953,-0.89953 v -31.03389 q 0,-0.53972 0.26986,-1.16939 0.26986,-0.71963 0.71963,-1.25935 0.53972,-0.62967 1.16939,-1.07944 0.62968,-0.44977 1.43926,-0.44977 h 8.63551 q 0.89954,0 0.89954,-0.89953 v -9.17524 q 0,-0.89953 -0.89954,-0.89953 z m 33.28277,11.87384 q 0,-0.89954 0.89953,-0.89954 h 7.37617 q 0.89954,0 0.89954,-0.89953 v -9.17524 q 0,-0.89953 -0.89954,-0.89953 h -7.37617 q -0.89953,0 -0.89953,-0.89953 v -11.24416 q 0,-0.89954 -0.89953,-0.89954 h -9.17524 q -0.89953,0 -0.89953,0.89954 v 11.24416 q 0,0.89953 -0.89954,0.89953 h -4.76752 q -0.89953,0 -0.89953,0.89953 v 9.17524 q 0,0.89953 0.89953,0.89953 h 4.76752 q 0.89954,0 0.89954,0.89954 v 28.06543 q 0,2.78855 2.24883,4.85748 2.24883,2.06892 5.66706,2.06892 h 11.33411 q 0.89954,0 0.89954,-0.89953 v -9.17524 q 0,-0.80958 -0.71963,-0.89953 h -7.55608 q -0.89953,0 -0.89953,-0.89953 z m 37.06082,16.3715 q 0.09,-0.17991 0.17991,-0.44977 0.17991,-0.35981 0.35981,-0.35981 0.17991,0 0.26986,0.35981 0.17991,0.26986 0.26986,0.44977 l 9.26519,17.7208 q 0.44977,0.71962 0.80958,0.80958 0.44977,0.0899 0.89953,0.0899 h 9.98482 q 0.62967,0 0.98949,-0.0899 0.44976,-0.09 0.44976,-0.62968 0,-0.1799 -0.35981,-0.89953 l -15.0222,-29.32477 q -0.17991,-0.26986 -0.44977,-0.71963 -0.1799,-0.44977 -0.1799,-0.62967 0,-0.17991 0.1799,-0.53972 0.26986,-0.44977 0.44977,-0.71963 l 15.0222,-29.32478 q 0.35981,-0.71962 0.35981,-0.89953 0,-0.53972 -0.44976,-0.62967 -0.35982,-0.09 -0.98949,-0.09 h -9.98482 q -0.44976,0 -0.89953,0.09 -0.35981,0.0899 -0.80958,0.80958 l -9.26519,17.7208 q -0.0899,0.1799 -0.26986,0.53972 -0.0899,0.26986 -0.26986,0.26986 -0.1799,0 -0.35981,-0.26986 -0.0899,-0.35982 -0.17991,-0.53972 l -9.26519,-17.7208 q -0.44976,-0.71963 -0.89953,-0.80958 -0.35981,-0.09 -0.80958,-0.09 h -9.98482 q -0.62967,0 -1.07944,0.09 -0.35981,0.0899 -0.35981,0.62967 0,0.17991 0.35981,0.89953 l 15.0222,29.32478 q 0.17991,0.26986 0.35982,0.71963 0.26986,0.35981 0.26986,0.53972 0,0.1799 -0.26986,0.62967 -0.17991,0.44977 -0.35982,0.71963 l -15.0222,29.32477 q -0.35981,0.71963 -0.35981,0.89953 0,0.53972 0.35981,0.62968 0.44977,0.0899 1.07944,0.0899 h 9.98482 q 0.44977,0 0.80958,-0.0899 0.44977,-0.09 0.89953,-0.80958 z m 30.31425,17.7208 q 0,0.89953 0.89953,0.89953 h 9.17524 q 0.89953,0 0.89953,-0.89953 v -33.28272 q 0,-1.07944 0.62967,-1.88902 0.71963,-0.80958 1.70912,-0.80958 h 8.2757 q 2.06893,0 3.77804,1.5292 1.79906,1.43926 1.79906,3.23832 v 31.2138 q 0,0.89953 0.89954,0.89953 h 9.17523 q 0.89954,0 0.89954,-0.89953 v -31.2138 q 0,-2.33878 1.5292,-3.50818 1.61916,-1.25934 3.23832,-1.25934 h 5.93692 q 0.98949,0 2.06893,0.44976 1.16939,0.35982 2.06892,1.1694 0.98949,0.80958 1.61916,1.97897 0.62967,1.07944 0.62967,2.51869 v 29.8645 q 0,0.89953 0.98949,0.89953 h 9.08528 q 0.89954,0 0.89954,-0.89953 v -31.03389 q 0,-2.51869 -1.25935,-5.12734 -1.16939,-2.6986 -3.41822,-4.85748 -2.15888,-2.15888 -5.2173,-3.50818 -3.05841,-1.43925 -6.74649,-1.43925 h -6.38669 q -0.53972,0 -2.42874,0.17991 -1.79906,0.0899 -3.59813,1.07944 -0.98949,0.44976 -1.70911,1.07944 -0.62967,0.62967 -1.07944,1.16939 -0.44977,0.53972 -0.80958,0.89953 -0.26986,0.26986 -0.44977,0.26986 -0.1799,0 -0.80958,-0.53972 -0.53972,-0.62967 -0.98948,-1.07944 -0.89954,-0.89953 -2.87851,-1.97897 -1.97897,-1.07944 -4.31776,-1.07944 h -18.62033 q -1.97897,0 -3.77804,1.61916 -1.70911,1.52921 -1.70911,3.77804 z"
       transform="matrix(1.0691742,0,0,1.0691742,-17.708583,-17.71341)" /></g></svg>
